<svg xmlns="http://www.w3.org/2000/svg" xmlns:xlink="http://www.w3.org/1999/xlink" width="38" height="22" version="1.1" viewBox="0 0 38 22"><title>mac_switch_off_press</title><defs><linearGradient id="linearGradient-1" x1="50%" x2="50%" y1="0%" y2="100%"><stop offset="0%" stop-color="#C7C7C7"/><stop offset="100%" stop-color="#CCC"/></linearGradient></defs><g id="Notifications" fill="none" fill-rule="evenodd" stroke="none" stroke-width="1"><g id="G02-Notifications---Mac----disabled" fill-rule="nonzero" transform="translate(-508.000000, -290.000000)"><g id="mac_switch_off_press" transform="translate(508.000000, 290.000000)"><rect id="Rectangle-Copy" width="38" height="22" x="0" y="0" fill="url(#linearGradient-1)" rx="11"/><path id="Combined-Shape-Copy-3" fill="#000" fill-opacity=".05" d="M11,22 C4.92486775,22 0,17.0751322 0,11 C0,4.92486775 4.92486775,0 11,0 L27,0 C33.0751322,0 38,4.92486775 38,11 C38,16.9787016 33.2302364,21.8433652 27.2884075,21.9962926 L27,22 L27,22 L11,22 Z M22.4094567,1.00072305 L11,1 C5.4771525,1 1,5.4771525 1,11 C1,16.4292399 5.32667079,20.8479317 10.7200952,20.9961582 L11,21 L22.4124408,21.0006487 C18.6279055,19.2617298 16,15.437755 16,11 C16,6.56341149 18.6265242,2.74028056 22.4094567,1.00072305 Z" transform="translate(19.000000, 11.000000) scale(-1, 1) translate(-19.000000, -11.000000)"/><circle id="Oval-Copy" cx="11" cy="11" r="10" fill="#ECECEC"/></g></g></g></svg>